<<<<<<< HEAD
<svg xmlns="http://www.w3.org/2000/svg" width="800" height="316" viewBox="0 0 800 316" role="img" aria-labelledby="title desc">
  <title id="title">kali@iamhimanshu: ~/arsenal (tmux: 2 panes)</title><desc id="desc">GitHub profile statistics for iamhimanshu108.</desc>
  <defs>
    <clipPath id="cardClip">
      <rect width="800" height="316" rx="12"/>
    </clipPath>
    <linearGradient id="kaliBorder" x1="0" y1="0" x2="1" y2="1">
      <stop offset="0%" stop-color="#00f0ff" stop-opacity="0.85"/>
      <stop offset="50%" stop-color="#1e40af" stop-opacity="0.5"/>
      <stop offset="100%" stop-color="#00f0ff" stop-opacity="0.85"/>
    </linearGradient>
    <linearGradient id="kaliHeader" x1="0" y1="0" x2="1" y2="0">
      <stop offset="0%" stop-color="#0f192c"/>
      <stop offset="100%" stop-color="#090e18"/>
    </linearGradient>
  </defs>
  <rect width="800" height="316" rx="12" fill="#070c16"/>
  <g clip-path="url(#cardClip)">
    <rect width="800" height="36" fill="url(#kaliHeader)"/>
    <line x1="0" y1="36" x2="800" y2="36" stroke="#1e2d4a" stroke-width="1"/>
  </g>
  <circle cx="20" cy="18" r="5.5" fill="#ff5555"/>
  <circle cx="38" cy="18" r="5.5" fill="#ffb86c"/>
  <circle cx="56" cy="18" r="5.5" fill="#50fa7b"/>
  <text x="400" y="22" text-anchor="middle" fill="#64748b" font-family="Fira Code, Menlo, Monaco, Consolas, Liberation Mono, monospace" font-size="11" font-weight="bold">kali@iamhimanshu: ~/arsenal (tmux: 2 panes)</text>
  <text x="780" y="22" text-anchor="end" fill="#38bdf8" font-family="Fira Code, Menlo, Monaco, Consolas, Liberation Mono, monospace" font-size="10" font-weight="bold" letter-spacing="1">zsh • kali-rolling</text>
  <rect x="1" y="1" width="798" height="314" rx="11" fill="none" stroke="url(#kaliBorder)" stroke-width="1.5"/>
  <defs>  <linearGradient id="stackTrack" x1="0" y1="0" x2="1" y2="0">    <stop offset="0%" stop-color="#0b1320"/>    <stop offset="100%" stop-color="#0d1829"/>  </linearGradient>  <linearGradient id="langTrack" x1="0" y1="0" x2="1" y2="0">    <stop offset="0%" stop-color="#0b1320"/>    <stop offset="100%" stop-color="#0d1829"/>  </linearGradient></defs><!-- Pane Divider Line --><line x1="398" y1="36" x2="398" y2="276" stroke="#1c2c48" stroke-width="1.5" stroke-dasharray="4 3"/><!-- Left Pane: Frameworks --><g font-family="Fira Code, Menlo, Monaco, Consolas, Liberation Mono, monospace" font-size="11.5">  <text x="24" y="62"><tspan fill="#3b8eea">┌──(</tspan><tspan fill="#ff5555" font-weight="bold">root</tspan><tspan fill="#3b8eea">㉿</tspan><tspan fill="#00f0ff" font-weight="bold">iamhimanshu</tspan><tspan fill="#3b8eea">)-[</tspan><tspan fill="#94a3b8">~/stack</tspan><tspan fill="#3b8eea">]</tspan></text>  <text x="24" y="80"><tspan fill="#3b8eea">└─#</tspan> <tspan fill="#00f0ff" font-weight="bold">./audit-stack --all</tspan></text></g><rect x="254" y="52" width="128" height="22" rx="4" fill="#0f1f38" stroke="#1d4ed8" stroke-width="1"/><text x="318" y="67" text-anchor="middle" fill="#38bdf8" font-family="Fira Code, Menlo, Monaco, Consolas, Liberation Mono, monospace" font-size="9.5" font-weight="bold" letter-spacing="0.5">FRAMEWORKS</text><!-- Right Pane: Languages --><g font-family="Fira Code, Menlo, Monaco, Consolas, Liberation Mono, monospace" font-size="11.5">  <text x="416" y="62"><tspan fill="#3b8eea">┌──(</tspan><tspan fill="#ff5555" font-weight="bold">root</tspan><tspan fill="#3b8eea">㉿</tspan><tspan fill="#00f0ff" font-weight="bold">iamhimanshu</tspan><tspan fill="#3b8eea">)-[</tspan><tspan fill="#94a3b8">~/langs</tspan><tspan fill="#3b8eea">]</tspan></text>  <text x="416" y="80"><tspan fill="#3b8eea">└─#</tspan> <tspan fill="#00f0ff" font-weight="bold">cloc --by-lang --top</tspan></text></g><rect x="652" y="52" width="124" height="22" rx="4" fill="#0f1f38" stroke="#1d4ed8" stroke-width="1"/><text x="714" y="67" text-anchor="middle" fill="#38bdf8" font-family="Fira Code, Menlo, Monaco, Consolas, Liberation Mono, monospace" font-size="9.5" font-weight="bold" letter-spacing="0.5">LANGUAGES</text><circle cx="32" cy="110" r="4" fill="#00f0ff"/><text x="44" y="114" fill="#f1f5f9" font-family="Fira Code, Menlo, Monaco, Consolas, Liberation Mono, monospace" font-size="12" font-weight="bold">React</text><rect x="156" y="105" width="155" height="7" rx="3.5" fill="url(#stackTrack)" stroke="#1a2b48" stroke-width="1"/><rect x="156" y="105" width="34.4" height="7" rx="3.5" fill="#00f0ff"/><text x="382" y="114" text-anchor="end" fill="#38bdf8" font-family="Fira Code, Menlo, Monaco, Consolas, Liberation Mono, monospace" font-size="11.5" font-weight="bold">22.2%</text><circle cx="32" cy="134" r="4" fill="#00ff9d"/><text x="44" y="138" fill="#f1f5f9" font-family="Fira Code, Menlo, Monaco, Consolas, Liberation Mono, monospace" font-size="12" font-weight="bold">Express</text><rect x="156" y="129" width="155" height="7" rx="3.5" fill="url(#stackTrack)" stroke="#1a2b48" stroke-width="1"/><rect x="156" y="129" width="25.8" height="7" rx="3.5" fill="#00ff9d"/><text x="382" y="138" text-anchor="end" fill="#38bdf8" font-family="Fira Code, Menlo, Monaco, Consolas, Liberation Mono, monospace" font-size="11.5" font-weight="bold">16.7%</text><circle cx="32" cy="158" r="4" fill="#6ee7b7"/><text x="44" y="162" fill="#f1f5f9" font-family="Fira Code, Menlo, Monaco, Consolas, Liberation Mono, monospace" font-size="12" font-weight="bold">Spring Boot</text><rect x="156" y="153" width="155" height="7" rx="3.5" fill="url(#stackTrack)" stroke="#1a2b48" stroke-width="1"/><rect x="156" y="153" width="25.8" height="7" rx="3.5" fill="#6ee7b7"/><text x="382" y="162" text-anchor="end" fill="#38bdf8" font-family="Fira Code, Menlo, Monaco, Consolas, Liberation Mono, monospace" font-size="11.5" font-weight="bold">16.7%</text><circle cx="32" cy="182" r="4" fill="#34d399"/><text x="44" y="186" fill="#f1f5f9" font-family="Fira Code, Menlo, Monaco, Consolas, Liberation Mono, monospace" font-size="12" font-weight="bold">Node.js</text><rect x="156" y="177" width="155" height="7" rx="3.5" fill="url(#stackTrack)" stroke="#1a2b48" stroke-width="1"/><rect x="156" y="177" width="21.5" height="7" rx="3.5" fill="#34d399"/><text x="382" y="186" text-anchor="end" fill="#38bdf8" font-family="Fira Code, Menlo, Monaco, Consolas, Liberation Mono, monospace" font-size="11.5" font-weight="bold">13.9%</text><circle cx="32" cy="206" r="4" fill="#00ff9d"/><text x="44" y="210" fill="#f1f5f9" font-family="Fira Code, Menlo, Monaco, Consolas, Liberation Mono, monospace" font-size="12" font-weight="bold">FastAPI</text><rect x="156" y="201" width="155" height="7" rx="3.5" fill="url(#stackTrack)" stroke="#1a2b48" stroke-width="1"/><rect x="156" y="201" width="17.2" height="7" rx="3.5" fill="#00ff9d"/><text x="382" y="210" text-anchor="end" fill="#38bdf8" font-family="Fira Code, Menlo, Monaco, Consolas, Liberation Mono, monospace" font-size="11.5" font-weight="bold">11.1%</text><circle cx="32" cy="230" r="4" fill="#38bdf8"/><text x="44" y="234" fill="#f1f5f9" font-family="Fira Code, Menlo, Monaco, Consolas, Liberation Mono, monospace" font-size="12" font-weight="bold">Tailwind CSS</text><rect x="156" y="225" width="155" height="7" rx="3.5" fill="url(#stackTrack)" stroke="#1a2b48" stroke-width="1"/><rect x="156" y="225" width="17.2" height="7" rx="3.5" fill="#38bdf8"/><text x="382" y="234" text-anchor="end" fill="#38bdf8" font-family="Fira Code, Menlo, Monaco, Consolas, Liberation Mono, monospace" font-size="11.5" font-weight="bold">11.1%</text><circle cx="424" cy="110" r="4" fill="#00f0ff"/><text x="436" y="114" fill="#f1f5f9" font-family="Fira Code, Menlo, Monaco, Consolas, Liberation Mono, monospace" font-size="12" font-weight="bold">JavaScript</text><rect x="548" y="105" width="155" height="7" rx="3.5" fill="url(#langTrack)" stroke="#1a2b48" stroke-width="1"/><rect x="548" y="105" width="87.3" height="7" rx="3.5" fill="#00f0ff"/><text x="776" y="114" text-anchor="end" fill="#38bdf8" font-family="Fira Code, Menlo, Monaco, Consolas, Liberation Mono, monospace" font-size="11.5" font-weight="bold">56.3%</text><circle cx="424" cy="134" r="4" fill="#38bdf8"/><text x="436" y="138" fill="#f1f5f9" font-family="Fira Code, Menlo, Monaco, Consolas, Liberation Mono, monospace" font-size="12" font-weight="bold">HTML</text><rect x="548" y="129" width="155" height="7" rx="3.5" fill="url(#langTrack)" stroke="#1a2b48" stroke-width="1"/><rect x="548" y="129" width="27.3" height="7" rx="3.5" fill="#38bdf8"/><text x="776" y="138" text-anchor="end" fill="#38bdf8" font-family="Fira Code, Menlo, Monaco, Consolas, Liberation Mono, monospace" font-size="11.5" font-weight="bold">17.6%</text><circle cx="424" cy="158" r="4" fill="#00ff9d"/><text x="436" y="162" fill="#f1f5f9" font-family="Fira Code, Menlo, Monaco, Consolas, Liberation Mono, monospace" font-size="12" font-weight="bold">CSS</text><rect x="548" y="153" width="155" height="7" rx="3.5" fill="url(#langTrack)" stroke="#1a2b48" stroke-width="1"/><rect x="548" y="153" width="18.8" height="7" rx="3.5" fill="#00ff9d"/><text x="776" y="162" text-anchor="end" fill="#38bdf8" font-family="Fira Code, Menlo, Monaco, Consolas, Liberation Mono, monospace" font-size="11.5" font-weight="bold">12.1%</text><circle cx="424" cy="182" r="4" fill="#ffb86c"/><text x="436" y="186" fill="#f1f5f9" font-family="Fira Code, Menlo, Monaco, Consolas, Liberation Mono, monospace" font-size="12" font-weight="bold">Java</text><rect x="548" y="177" width="155" height="7" rx="3.5" fill="url(#langTrack)" stroke="#1a2b48" stroke-width="1"/><rect x="548" y="177" width="16.2" height="7" rx="3.5" fill="#ffb86c"/><text x="776" y="186" text-anchor="end" fill="#38bdf8" font-family="Fira Code, Menlo, Monaco, Consolas, Liberation Mono, monospace" font-size="11.5" font-weight="bold">10.4%</text><circle cx="424" cy="206" r="4" fill="#a78bfa"/><text x="436" y="210" fill="#f1f5f9" font-family="Fira Code, Menlo, Monaco, Consolas, Liberation Mono, monospace" font-size="12" font-weight="bold">Python</text><rect x="548" y="201" width="155" height="7" rx="3.5" fill="url(#langTrack)" stroke="#1a2b48" stroke-width="1"/><rect x="548" y="201" width="5.2" height="7" rx="3.5" fill="#a78bfa"/><text x="776" y="210" text-anchor="end" fill="#38bdf8" font-family="Fira Code, Menlo, Monaco, Consolas, Liberation Mono, monospace" font-size="11.5" font-weight="bold">3.4%</text><circle cx="424" cy="230" r="4" fill="#f43f5e"/><text x="436" y="234" fill="#f1f5f9" font-family="Fira Code, Menlo, Monaco, Consolas, Liberation Mono, monospace" font-size="12" font-weight="bold">Dockerfile</text><rect x="548" y="225" width="155" height="7" rx="3.5" fill="url(#langTrack)" stroke="#1a2b48" stroke-width="1"/><rect x="548" y="225" width="3.5" height="7" rx="3.5" fill="#f43f5e"/><text x="776" y="234" text-anchor="end" fill="#38bdf8" font-family="Fira Code, Menlo, Monaco, Consolas, Liberation Mono, monospace" font-size="11.5" font-weight="bold">0.1%</text><line x1="24" y1="276" x2="776" y2="276" stroke="#162032" stroke-width="1"/><text x="24" y="294" fill="#00ff9d" font-family="Fira Code, Menlo, Monaco, Consolas, Liberation Mono, monospace" font-size="10.5" font-weight="bold">[✓] 12 modules verified</text><text x="400" y="294" text-anchor="middle" fill="#64748b" font-family="Fira Code, Menlo, Monaco, Consolas, Liberation Mono, monospace" font-size="10.5">tmux: 2 panes (split-v) • session: 0:zsh*</text><text x="776" y="294" text-anchor="end" fill="#38bdf8" font-family="Fira Code, Menlo, Monaco, Consolas, Liberation Mono, monospace" font-size="10.5" font-weight="bold">status: 200 OK</text>
=======
<svg xmlns="http://www.w3.org/2000/svg" width="780" height="215" viewBox="0 0 780 215" role="img" aria-labelledby="title desc">
  <title id="title">Himanshu&#x27;s tech stack and framework usage</title><desc id="desc">GitHub profile statistics for iamhimanshu108.</desc>
  <rect width="780" height="215" rx="16" fill="#020804"/>
  <rect x="1" y="1" width="778" height="213" rx="15" fill="none" stroke="#00ff66" stroke-width="2"/>
  <defs>  <linearGradient id="stackTrack" x1="0" y1="0" x2="1" y2="0">    <stop offset="0%" stop-color="#04180c"/>    <stop offset="100%" stop-color="#062211"/>  </linearGradient></defs><text x="38" y="32" fill="#45ff8f" font-family="monospace" font-size="14" font-weight="bold">root@iamhimanshu:~$ tech-stack --usage</text><text x="742" y="32" text-anchor="end" fill="#7cffb2" font-family="Fira Code, Menlo, Monaco, Consolas, Liberation Mono, monospace" font-size="12">FRAMEWORKS &amp; TOOLS</text><circle cx="44" cy="62" r="4.5" fill="#61DAFB"/><text x="60" y="66" fill="#c8ffd9" font-family="Fira Code, Menlo, Monaco, Consolas, Liberation Mono, monospace" font-size="14">React</text><rect x="200" y="55" width="450" height="9" rx="4.5" fill="url(#stackTrack)" stroke="#0d3d21" stroke-width="1"/><rect x="200" y="55" width="142.9" height="9" rx="4.5" fill="#61DAFB"/><text x="742" y="66" text-anchor="end" fill="#e5ffe9" font-family="Fira Code, Menlo, Monaco, Consolas, Liberation Mono, monospace" font-size="13" font-weight="bold">31.75%</text><circle cx="44" cy="86" r="4.5" fill="#ffbd2e"/><text x="60" y="90" fill="#c8ffd9" font-family="Fira Code, Menlo, Monaco, Consolas, Liberation Mono, monospace" font-size="14">Vite</text><rect x="200" y="79" width="450" height="9" rx="4.5" fill="url(#stackTrack)" stroke="#0d3d21" stroke-width="1"/><rect x="200" y="79" width="107.1" height="9" rx="4.5" fill="#ffbd2e"/><text x="742" y="90" text-anchor="end" fill="#e5ffe9" font-family="Fira Code, Menlo, Monaco, Consolas, Liberation Mono, monospace" font-size="13" font-weight="bold">23.81%</text><circle cx="44" cy="110" r="4.5" fill="#38bdf8"/><text x="60" y="114" fill="#c8ffd9" font-family="Fira Code, Menlo, Monaco, Consolas, Liberation Mono, monospace" font-size="14">Tailwind CSS</text><rect x="200" y="103" width="450" height="9" rx="4.5" fill="url(#stackTrack)" stroke="#0d3d21" stroke-width="1"/><rect x="200" y="103" width="78.6" height="9" rx="4.5" fill="#38bdf8"/><text x="742" y="114" text-anchor="end" fill="#e5ffe9" font-family="Fira Code, Menlo, Monaco, Consolas, Liberation Mono, monospace" font-size="13" font-weight="bold">17.46%</text><circle cx="44" cy="134" r="4.5" fill="#6db33f"/><text x="60" y="138" fill="#c8ffd9" font-family="Fira Code, Menlo, Monaco, Consolas, Liberation Mono, monospace" font-size="14">Spring Boot</text><rect x="200" y="127" width="450" height="9" rx="4.5" fill="url(#stackTrack)" stroke="#0d3d21" stroke-width="1"/><rect x="200" y="127" width="57.1" height="9" rx="4.5" fill="#6db33f"/><text x="742" y="138" text-anchor="end" fill="#e5ffe9" font-family="Fira Code, Menlo, Monaco, Consolas, Liberation Mono, monospace" font-size="13" font-weight="bold">12.70%</text><circle cx="44" cy="158" r="4.5" fill="#45ff8f"/><text x="60" y="162" fill="#c8ffd9" font-family="Fira Code, Menlo, Monaco, Consolas, Liberation Mono, monospace" font-size="14">Node.js</text><rect x="200" y="151" width="450" height="9" rx="4.5" fill="url(#stackTrack)" stroke="#0d3d21" stroke-width="1"/><rect x="200" y="151" width="42.9" height="9" rx="4.5" fill="#45ff8f"/><text x="742" y="162" text-anchor="end" fill="#e5ffe9" font-family="Fira Code, Menlo, Monaco, Consolas, Liberation Mono, monospace" font-size="13" font-weight="bold">9.52%</text><circle cx="44" cy="182" r="4.5" fill="#b6ff00"/><text x="60" y="186" fill="#c8ffd9" font-family="Fira Code, Menlo, Monaco, Consolas, Liberation Mono, monospace" font-size="14">Express</text><rect x="200" y="175" width="450" height="9" rx="4.5" fill="url(#stackTrack)" stroke="#0d3d21" stroke-width="1"/><rect x="200" y="175" width="21.4" height="9" rx="4.5" fill="#b6ff00"/><text x="742" y="186" text-anchor="end" fill="#e5ffe9" font-family="Fira Code, Menlo, Monaco, Consolas, Liberation Mono, monospace" font-size="13" font-weight="bold">4.76%</text>
>>>>>>> 35ead18fce94a5e574b6fe77f524eb0928d589a4
</svg>
